inDegrees=no
num_controls=7
num_derivatives=13
num_iterations=140
num_multipliers=7
num_parameters=0
num_slacks=7
num_states=26
objective=0.516694
objective_accelerations=0.039704
objective_balance=0.002190
objective_effort=0.043708
objective_height=0.419470
objective_ligament=0.011622
solver_duration=1899.473860
status=Solve_Succeeded
success=true
DataType=double
version=3
OpenSimVersion=4.5
endheader
time	/jointset/ground_pelvis/pelvis_tilt/value	/jointset/ground_pelvis/pelvis_tx/value	/jointset/ground_pelvis/pelvis_ty/value	/jointset/hip_l/hip_flexion_l/value	/jointset/hip_l/hip_adduction_l/value	/jointset/hip_l/hip_rotation_l/value	/jointset/back/lumbar_extension/value	/jointset/patellofemoral_l/patellar_flexion_l/value	/jointset/knee_l/knee_flexion_l/value	/jointset/knee_l/knee_adduction_l/value	/jointset/knee_l/knee_rotation_l/value	/jointset/ankle_l/ankle_angle_l/value	/jointset/subtalar_l/subtalar_angle_l/value	/jointset/ground_pelvis/pelvis_tilt/speed	/jointset/ground_pelvis/pelvis_tx/speed	/jointset/ground_pelvis/pelvis_ty/speed	/jointset/hip_l/hip_flexion_l/speed	/jointset/hip_l/hip_adduction_l/speed	/jointset/hip_l/hip_rotation_l/speed	/jointset/back/lumbar_extension/speed	/jointset/patellofemoral_l/patellar_flexion_l/speed	/jointset/knee_l/knee_flexion_l/speed	/jointset/knee_l/knee_adduction_l/speed	/jointset/knee_l/knee_rotation_l/speed	/jointset/ankle_l/ankle_angle_l/speed	/jointset/subtalar_l/subtalar_angle_l/speed	/forceset/tau_hip_flexion_l	/forceset/tau_hip_adduction_l	/forceset/tau_hip_rotation_l	/forceset/tau_knee_flexion_l	/forceset/tau_ankle_angle_l	/forceset/tau_subtalar_angle_l	/forceset/tau_lumbar_extension	lambda_cid13_p0	lambda_cid13_p1	lambda_cid13_p2	lambda_cid13_p3	lambda_cid13_p4	lambda_cid13_p5	lambda_cid14_p0	/jointset/ground_pelvis/pelvis_tilt/accel	/jointset/ground_pelvis/pelvis_tx/accel	/jointset/ground_pelvis/pelvis_ty/accel	/jointset/hip_l/hip_flexion_l/accel	/jointset/hip_l/hip_adduction_l/accel	/jointset/hip_l/hip_rotation_l/accel	/jointset/back/lumbar_extension/accel	/jointset/patellofemoral_l/patellar_flexion_l/accel	/jointset/knee_l/knee_flexion_l/accel	/jointset/knee_l/knee_adduction_l/accel	/jointset/knee_l/knee_rotation_l/accel	/jointset/ankle_l/ankle_angle_l/accel	/jointset/subtalar_l/subtalar_angle_l/accel	gamma_cid13_p0	gamma_cid13_p1	gamma_cid13_p2	gamma_cid13_p3	gamma_cid13_p4	gamma_cid13_p5	gamma_cid14_p0
1.5	-0.01461521584788226	-0.02544074092802182	0.8686924070034703	0.6319246087230942	-0.3126632191037712	-0.1778046790333786	-0.7844139576598619	0.6395452345957026	0.6395452345958095	-0.1084560786874269	-0.1745311054096971	0.07067557595778291	0.005723775773935056	0.3879082745747919	0.2778735254893911	0.3435921221504279	-1.866617491812374	0.0944087155887838	-0.5367496288819948	0.8403443737925147	-1.642269216363095	-1.642269216363106	-0.1260039443745656	4.277055399026024e-06	-0.2522840101939101	0.02101360292267497	-0.2045768321577858	0.01344806115549342	-0.003817095043111613	-0.1907870342558917	0.09555280442893752	0.04754434622051416	0.2803966592392628	-11.84236338917692	-20.77865754430265	5.375488706995083	-8.587300190824637	-673.0155357561085	-82.23958792327117	-19.92406698976185	-0.008030336252370353	0.62929133897183	-0.5021267326055799	-0.6275950795436409	0.3198210352436497	-0.21324996192461	1.747882705519477	-0.628968099817338	-0.6289680998173532	-0.2963416952096801	0.03517798142165506	0.03153211530987726	0.3401859934211604	2.512150423561774e-09	1.032170331256878e-06	1.42953720418881e-07	1.586194234257407e-07	8.5209967061213e-08	1.525527900870159e-07	1.013853922282402e-07
1.51	-0.0107369838481802	-0.02263081795201507	0.872102565105891	0.6132291033856431	-0.3117036041716467	-0.183183995689267	-0.7759243350723405	0.6230931843742475	0.62309318437431	-0.1097308385813118	-0.174531110071057	0.06815464767557403	0.005950524287768662	0.3876846523129648	0.2840798929203074	0.3383747292703853	-1.872246730545808	0.09750643712884442	-0.539060693154633	0.8574648478453649	-1.647919906021082	-1.647919906021093	-0.1289418126223013	-5.894934261732045e-06	-0.2518508198638836	0.0243422565803644	-0.1970651151611656	0.01261798954657332	-0.003787764352423014	-0.1882390203504613	0.0952973367821047	0.04660255209445885	0.2734134332841675	-11.73557161851444	-20.4320146087241	5.370117190711805	-8.392709692197325	-669.2856546721214	-82.12102354247013	-20.3995359546562	-0.03755919613544848	0.6116664651665253	-0.5412445132748124	-0.4950736926581366	0.3033974536085509	-0.2320016634586007	1.676835375214721	-0.5000007092013078	-0.500000709201341	-0.2913769013580835	-0.01920481459556269	0.05686471467466616	0.3299352604750623	-6.27271319907451e-09	1.064743116801391e-06	1.757071288325963e-07	1.646085583318519e-07	8.31307453561098e-08	1.531846795646463e-07	9.913929163085669e-08
1.52	-0.006862594276093517	-0.01975975989769614	0.8754586094899969	0.5944844085763747	-0.3107132820760771	-0.1885848163885875	-0.7672669666202813	0.6065912509941299	0.6065912509941485	-0.1110347506600345	-0.1745312344574006	0.06563958174123045	0.006210705379885612	0.3871397890516343	0.290100541151827	0.3327693784874931	-1.876455386175836	0.1005501482777568	-0.5410504375682785	0.873893546700092	-1.652245848095546	-1.652245848095558	-0.1318343813421402	-1.966794134730141e-05	-0.2511115406208322	0.02770011857934289	-0.1895533981645467	0.01178791793765165	-0.003758433661728576	-0.1856910064450319	0.09504186913527109	0.04566075796840121	0.2664302073290718	-11.63444805147927	-20.0845188703084	5.364769186372538	-8.202013044398839	-665.6531278828056	-82.02078690891251	-20.85123550403123	-0.07227853615306132	0.5921474990924939	-0.5797183131755181	-0.3434784588623487	0.309018957013995	-0.1489859901260867	1.609527665894883	-0.3640185831126918	-0.3640185831126985	-0.2872817896303229	0.03445777793669191	0.09274989791482813	0.3460276616789719	-5.247179206993315e-09	1.067939996768865e-06	1.577486393867828e-07	1.615913178394237e-07	8.956322458186225e-08	1.594202915933936e-07	1.005314872252647e-07
1.53	-0.002995263279684182	-0.01682948328711841	0.8787567159966463	0.5757047342986932	-0.3096928637398277	-0.194003679087513	-0.758448934211866	0.5900526806032412	0.5900526806032408	-0.1123676040025327	-0.1745313431219668	0.06313340984838689	0.00650452516574667	0.3862715854145247	0.2959172076400944	0.3267923598285861	-1.87923594646856	0.1035211929001073	-0.5426678957450202	0.8895812508928624	-1.655241149570985	-1.655241149571026	-0.1347298052490156	-4.053129193353969e-06	-0.2500722412967322	0.03106540954059304	-0.1818927443276784	0.01078986358687545	-0.003786765728753316	-0.1833095935013283	0.0949246673644772	0.0446965409977523	0.2593170178671073	-11.49712607909324	-19.73133133716884	5.355896128846776	-7.991397325831828	-662.1102487125536	-81.93915231234837	-21.27632757659269	-0.1023227814403694	0.5708186784509719	-0.6156054294035889	-0.2088252888852511	0.2891478527539795	-0.1599031474607296	1.528639182460639	-0.2332455739108907	-0.2332455739152222	-0.2895189289482448	-0.01519920324043673	0.1171355532349323	0.3318480578701595	6.201902250725088e-09	1.039924977060737e-06	8.590875846522051e-08	1.490048034860475e-07	1.050393860466487e-07	1.716098588327028e-07	1.057893725234512e-07
1.54	0.0008617393795642566	-0.01384216152070657	0.8819932699592758	0.556904558323203	-0.308643134829773	-0.1994370718514087	-0.7494779752842246	0.5734909652687675	0.5734909652687484	-0.113729180831646	-0.1745313581456306	0.06063915406949976	0.006832011510124658	0.3850741216193959	0.3015095723186494	0.3204588696834656	-1.880555725737596	0.1064122630387943	-0.543956450562263	0.9044788505453326	-1.656874836812478	-1.656874836812548	-0.1375790786651746	-9.397608466644011e-07	-0.2487283178295386	0.03443343028272806	-0.1742320904908119	0.009791809236097555	-0.003815097795773853	-0.1809281805576258	0.09480746559368258	0.04373232402710135	0.252203828405142	-11.36560743114693	-19.37672317671422	5.346334653410406	-7.783877587194844	-658.6664905014341	-81.87795508358683	-21.67204070267021	-0.1381305677568977	0.5472871371500004	-0.6510126104182138	-0.05132225412458035	0.2930240602812911	-0.08320531822635853	1.451506757834802	-0.09169573632349956	-0.09169573632350005	-0.2780516914870201	0.03195748917524072	0.1536747265335203	0.3465736178559441	9.954051073117268e-09	1.01870575835278e-06	5.164533720915229e-08	1.411221193882094e-07	1.131885707597769e-07	1.768123646773354e-07	1.066356923435907e-07
